# xmcd
#
# Track frame offsets:
#	150
#	21671
#	37529
#	62991
#	79675
#	98967
#	120123
#	135039
#	157828
#	176480
#	194256
#	218020
#	231747
#	245940
#	259340
#	276306
#	290921
#	305435
#	315268
#
# Disc length: 4420 seconds
#
# Revision: 1
# Processed by: cddbd v1.5.2PL0 Copyright (c) Steve Scherf et al.
# Submitted via: audiograbber 1.83.01
#
DISCID=0c114213
DTITLE=Various Artist - Finger Poppin Time Best Of O.D.
DYEAR=1900
DGENRE=
TTITLE0=Jimmy McCracklin - Good Ole Days
TTITLE1=Band Of Oz with Kip Anderson - House Of Blue Lights
TTITLE2=Janice with Harvey Fuqua and The Moonglows - Gospel Medley
TTITLE3=Ronnie Barnes - Jumpin' The Gun
TTITLE4=Dudley Birch - Can't Let You Go
TTITLE5=The Sugarbees ft. Ruby Andrews - Bark Battle and Ball
TTITLE6=Breeze - Trickle Trickle
TTITLE7=Freda Payne - Momories and Souvenirs
TTITLE8=The Catalinas - I'll Keep Movin On
TTITLE9=Suzanne Saxon and The Swingin Boogie Band - Swingin Boogie Blues
TTITLE10=Earl Thomas - The Way She Shakes That Thang
TTITLE11=Eliza - Broken Hearted Melody
TTITLE12=The Rhythm Sheiks - Avalon
TTITLE13=Fingers Taylor ft. Anson Funderburgh  - Let It Rock
TTITLE14=Leon Martin and Jimmy Hall - Flip Flop Fly
TTITLE15=Jimmy McCracklin - Club Savoy Savoy Jump
TTITLE16=Fred James - The Eyes Don't Lie
TTITLE17=Jimmy McCracklin - Arkansas
TTITLE18=Billy C. Farlowe - Cannonball
EXTD=
EXTT0=
EXTT1=
EXTT2=
EXTT3=
EXTT4=
EXTT5=
EXTT6=
EXTT7=
EXTT8=
EXTT9=
EXTT10=
EXTT11=
EXTT12=
EXTT13=
EXTT14=
EXTT15=
EXTT16=
EXTT17=
EXTT18=
PLAYORDER=
